<?xml version="1.0" encoding="utf-8"?>
<svg version="1.1" xmlns:xlink="http://www.w3.org/1999/xlink" width="31px" height="37px" xmlns="http://www.w3.org/2000/svg">
  <g transform="matrix(1 0 0 1 -11 -7 )">
    <path d="M 30.5998641304348 29.4637276785714  C 30.8666213768116 29.7252604166667  31 30.0349702380952  31 30.3928571428571  C 31 30.750744047619  30.8666213768116 31.0604538690476  30.5998641304348 31.3219866071429  C 30.333106884058 31.5835193452381  30.0172101449275 31.7142857142857  29.6521739130435 31.7142857142857  L 19.9225543478261 31.7142857142857  C 19.9365942028986 31.9482886904762  19.9787137681159 32.5505022321429  20.0489130434783 33.5209263392857  C 20.1191123188406 34.4913504464286  20.1542119565217 35.2380952380952  20.1542119565217 35.7611607142857  C 20.1542119565217 36.1052827380952  20.0278532608696 36.3977864583333  19.7751358695652 36.638671875  C 19.5224184782609 36.8795572916667  19.2205615942029 37  18.8695652173913 37  L 12.1304347826087 37  C 11.7794384057971 37  11.4775815217391 36.8795572916667  11.2248641304348 36.638671875  C 10.9721467391304 36.3977864583333  10.8457880434783 36.1052827380952  10.8457880434783 35.7611607142857  C 10.8457880434783 35.2380952380952  10.8808876811594 34.4913504464286  10.9510869565217 33.5209263392857  C 11.0212862318841 32.5505022321429  11.0634057971015 31.9482886904762  11.0774456521739 31.7142857142857  L 1.34782608695652 31.7142857142857  C 0.982789855072464 31.7142857142857  0.666893115942029 31.5835193452381  0.400135869565217 31.3219866071429  C 0.133378623188406 31.0604538690476  0 30.750744047619  0 30.3928571428571  C 0 30.0349702380952  0.133378623188406 29.7252604166667  0.400135869565217 29.4637276785714  L 8.86616847826087 21.1428571428571  L 4.04347826086957 21.1428571428571  C 3.67844202898551 21.1428571428571  3.36254528985507 21.0120907738095  3.09578804347826 20.7505580357143  C 2.82903079710145 20.489025297619  2.69565217391304 20.1793154761905  2.69565217391304 19.8214285714286  C 2.69565217391304 19.4635416666667  2.82903079710145 19.1538318452381  3.09578804347826 18.8922991071429  L 11.5618206521739 10.5714285714286  L 7.41304347826087 10.5714285714286  C 7.04800724637681 10.5714285714286  6.73211050724638 10.4406622023809  6.46535326086957 10.1791294642857  C 6.19859601449275 9.91759672619048  6.06521739130435 9.6078869047619  6.06521739130435 9.25  C 6.06521739130435 8.89211309523809  6.19859601449275 8.58240327380952  6.46535326086957 8.32087053571429  L 14.5523097826087 0.392299107142858  C 14.8190670289855 0.130766369047622  15.1349637681159 0  15.5 0  C 15.8650362318841 0  16.1809329710145 0.130766369047622  16.4476902173913 0.392299107142858  L 24.5346467391304 8.32087053571429  C 24.8014039855072 8.58240327380952  24.9347826086957 8.89211309523809  24.9347826086957 9.25  C 24.9347826086957 9.6078869047619  24.8014039855072 9.91759672619048  24.5346467391304 10.1791294642857  C 24.2678894927536 10.4406622023809  23.9519927536232 10.5714285714286  23.5869565217391 10.5714285714286  L 19.4381793478261 10.5714285714286  L 27.9042119565217 18.8922991071429  C 28.1709692028986 19.1538318452381  28.304347826087 19.4635416666667  28.304347826087 19.8214285714286  C 28.304347826087 20.1793154761905  28.1709692028986 20.489025297619  27.9042119565217 20.7505580357143  C 27.6374547101449 21.0120907738095  27.3215579710145 21.1428571428571  26.9565217391304 21.1428571428571  L 22.1338315217391 21.1428571428571  L 30.5998641304348 29.4637276785714  Z " fill-rule="nonzero" fill="#f4eb94" stroke="none" transform="matrix(1 0 0 1 11 7 )" />
  </g>
</svg>